<svg xmlns="http://www.w3.org/2000/svg" viewBox="0 0 512 512">
  <defs>
    <linearGradient id="bg-gradient" x1="0%" y1="0%" x2="100%" y2="100%">
      <stop offset="0%" stop-color="#312e81" /> <!-- Indigo-900 -->
      <stop offset="100%" stop-color="#7f1d1d" /> <!-- Red-900 (Vampire touch) -->
    </linearGradient>
    <filter id="glow" x="-20%" y="-20%" width="140%" height="140%">
      <feGaussianBlur stdDeviation="15" result="blur" />
      <feComposite in="SourceGraphic" in2="blur" operator="over" />
    </filter>
  </defs>

  <!-- Background: Rounded Square (App Icon Style) -->
  <rect width="512" height="512" rx="120" fill="url(#bg-gradient)" />

  <!-- Inner Stroke (Border) -->
  <rect x="20" y="20" width="472" height="472" rx="100" fill="none" stroke="rgba(255,255,255,0.1)" stroke-width="8" />

  <!-- The d20 Icon -->
  <g transform="translate(256, 266) scale(0.85)" fill="none" stroke="#e5e7eb" stroke-width="24" stroke-linecap="round" stroke-linejoin="round">
    <!-- Outer Hexagon Shape -->
    <path d="M0 -190 L164.5 -95 L164.5 95 L0 190 L-164.5 95 L-164.5 -95 Z" />
    
    <!-- Inner Triangle -->
    <path d="M0 -95 L82.25 47.5 L-82.25 47.5 Z" />
    
    <!-- Connecting Lines (Creating the faces) -->
    <path d="M0 -190 L0 -95" />
    <path d="M164.5 -95 L82.25 47.5" />
    <path d="M164.5 95 L82.25 47.5" />
    <path d="M0 190 L82.25 47.5" /> <!-- Fixed connection -->
    <path d="M0 190 L-82.25 47.5" />
    <path d="M-164.5 95 L-82.25 47.5" />
    <path d="M-164.5 -95 L-82.25 47.5" />
    
    <!-- Top connections -->
    <path d="M-164.5 -95 L0 -95" />
    <path d="M164.5 -95 L0 -95" />
    
    <!-- Bottom connections fixes for 3D perspective -->
    <path d="M0 190 L0 100" stroke-opacity="0" /> <!-- Spacer -->
  </g>
  
  <!-- Digital/Magic Sparkle Accent -->
  <path d="M380 100 L390 80 L410 70 L390 60 L380 40 L370 60 L350 70 L370 80 Z" fill="#fbbf24" filter="url(#glow)" opacity="0.9"/>

</svg>
